<svg xmlns="http://www.w3.org/2000/svg" width="18" height="18" fill="none" viewBox="0 0 18 18"><path fill="#929292" d="M10.3695 5.76765L10.5955 5.05254C10.5738 5.04567 10.5518 5.03979 10.5295 5.03493L10.3695 5.76765ZM12.2305 8.18633H12.9805C12.9805 8.18076 12.9805 8.17519 12.9803 8.16962L12.2305 8.18633ZM12.2305 15.4493H11.4805C11.4805 15.4736 11.4817 15.4979 11.4841 15.5222L12.2305 15.4493ZM10.3637 16.9468L10.5602 16.2229L10.5515 16.2206L10.3637 16.9468ZM13.846 3V2.25V3ZM16 5.07315H16.75H16ZM16 11.2601L16.75 11.2669V11.2601H16ZM13.767 13.3657L13.7755 12.6157H13.767V13.3657ZM12.2305 12.6157C11.8163 12.6157 11.4805 12.9515 11.4805 13.3657C11.4805 13.78 11.8163 14.1157 12.2305 14.1157V12.6157ZM2.84993 4.89273L10.2094 6.50037L10.5295 5.03493L3.17005 3.42729L2.84993 4.89273ZM10.1434 6.48277C10.5326 6.60579 10.8676 6.84049 11.1053 7.14944L12.2941 6.23471C11.8652 5.67724 11.2706 5.26595 10.5955 5.05254L10.1434 6.48277ZM11.1053 7.14944C11.3427 7.45797 11.4723 7.82615 11.4807 8.20303L12.9803 8.16962C12.9647 7.4686 12.7234 6.79261 12.2941 6.23471L11.1053 7.14944ZM11.4805 8.18633V15.4493H12.9805V8.18633H11.4805ZM11.4841 15.5222C11.4941 15.6251 11.4781 15.7296 11.4363 15.8272L12.8151 16.4179C12.9558 16.0897 13.0117 15.732 12.977 15.3764L11.4841 15.5222ZM11.4363 15.8272C11.3945 15.9249 11.3272 16.0144 11.2376 16.0862L12.1762 17.2563C12.4544 17.0332 12.6745 16.746 12.8151 16.4179L11.4363 15.8272ZM11.2376 16.0862C11.148 16.1582 11.0392 16.2097 10.92 16.2342L11.2214 17.7036C11.5704 17.632 11.8983 17.4793 12.1762 17.2563L11.2376 16.0862ZM10.92 16.2342C10.8009 16.2586 10.6771 16.2547 10.5602 16.223L10.1673 17.6706C10.511 17.7639 10.8725 17.7751 11.2214 17.7036L10.92 16.2342ZM13.846 3.75C14.2274 3.75 14.5877 3.8961 14.849 4.14758L15.8892 3.06684C15.3426 2.54074 14.6071 2.25 13.846 2.25V3.75ZM14.849 4.14758C15.1093 4.39813 15.25 4.73169 15.25 5.07315H16.75C16.75 4.31494 16.4368 3.59387 15.8892 3.06684L14.849 4.14758ZM15.25 5.07315V11.2601H16.75V5.07315H15.25ZM15.25 11.2533C15.2484 11.4301 15.2106 11.6055 15.138 11.7699L16.51 12.3763C16.6647 12.0262 16.7465 11.6492 16.75 11.2669L15.25 11.2533ZM15.138 11.7699C15.0653 11.9344 14.9588 12.0853 14.823 12.2133L15.8521 13.3047C16.1313 13.0414 16.3553 12.7262 16.51 12.3763L15.138 11.7699ZM14.823 12.2133C14.6872 12.3414 14.525 12.4438 14.3449 12.5134L14.8854 13.9126C15.2443 13.774 15.573 13.5678 15.8521 13.3047L14.823 12.2133ZM14.3449 12.5134C14.1647 12.583 13.9711 12.618 13.7755 12.6158L13.7586 14.1157C14.1437 14.12 14.5266 14.0512 14.8854 13.9126L14.3449 12.5134ZM13.767 12.6157H12.2305V14.1157H13.767V12.6157ZM5.03328 3.75H13.846V2.25H5.03328V3.75ZM10.5515 16.2206L4.47028 14.6483L4.09479 16.1005L10.176 17.6729L10.5515 16.2206ZM2.78353 12.47L2.78328 6.00008L1.28328 6.00014L1.28353 12.47L2.78353 12.47ZM4.47028 14.6483C3.47726 14.3915 2.78356 13.4957 2.78353 12.47L1.28353 12.47C1.28359 14.1795 2.43975 15.6726 4.09479 16.1005L4.47028 14.6483ZM5.03328 2.25C2.96216 2.25 1.28321 3.92901 1.28328 6.00014L2.78328 6.00008C2.78324 4.75741 3.79061 3.75 5.03328 3.75V2.25Z"/><circle cx="8.355" cy="10.956" r="1.25" fill="#929292"/></svg>